# xmcd
#
# Track frame offsets:
#	150
#	11172
#	22882
#	33641
#	46273
#	56070
#	66201
#	78089
#	92363
#	105820
#	117733
#	128841
#
# Disc length: 1855 seconds
#
# Revision: 2
# Processed by: cddbd v1.5.2PL0 Copyright (c) Steve Scherf et al.
# Submitted via: EasyCDDAExtractor 12.0.1.1
#
DISCID=90073d0c
DTITLE=Buck Owens - On The Bandstand
DYEAR=1963
DGENRE=Country
TTITLE0=Saw Mill
TTITLE1=King Of Fools
TTITLE2=Sally Was A Good Old Girl
TTITLE3=I Can't Stop (My Lovin' You) 
TTITLE4=Orange Blossom Special
TTITLE5=Cotton Fields
TTITLE6=Kickin' Our Hearts Around
TTITLE7=Touch Me
TTITLE8=Sweethearts In Heaven
TTITLE9=Release Me
TTITLE10=One Way Love
TTITLE11=Diggy Liggy Lo
EXTD=
EXTT0=
EXTT1=
EXTT2=
EXTT3=
EXTT4=
EXTT5=
EXTT6=
EXTT7=
EXTT8=
EXTT9=
EXTT10=
EXTT11=
PLAYORDER=
